LG_Walk_Slower03																		
version=1																		
nRows=73																		
nColumns=19																		
inDegrees=yes																		
endheader																		
time	ground_force2_vx	ground_force2_vy	ground_force2_vz	ground_force2_px	ground_force2_py	ground_force2_pz	ground_torque2_x	ground_torque2_y	ground_torque2_z	ground_force1_vx	ground_force1_vy	ground_force1_vz	ground_force1_px	ground_force1_py	ground_force1_pz	ground_torque1_x	ground_torque1_y	ground_torque1_z
5.392	4.791432	68.103691	21.399605	0.13286	0	-0.372526	3.00E-06	0.807214	1.00E-06	0	0	0	-0.13	0	0.305	0	0	0
5.393	3.153677	68.103691	20.850809	0.130319	0	-0.372328	3.00E-06	0.878096	0	0	0	0	-0.13	0	0.305	0	0	0
5.394	3.153677	70.326248	20.850809	0.127176	0	-0.369307	1.00E-06	1.02351	0	0	0	0	-0.13	0	0.305	0	0	0
5.395	3.467245	79.421997	21.242218	0.127176	0	-0.369307	1.00E-06	1.02351	0	0	0	0	-0.13	0	0.305	0	0	0
5.396	5.580767	93.35701	21.242218	0.13432	0	-0.36796	3.00E-06	0.753557	1.00E-06	0	0	0	-0.13	0	0.305	0	0	0
5.397	5.580767	97.639305	20.301851	0.136088	0	-0.366562	3.00E-06	0.753557	1.00E-06	0	0	0	-0.13	0	0.305	0	0	0
5.398	5.420735	99.869965	18.186401	0.13432	0	-0.367872	2.00E-06	0.802285	1.00E-06	0	0	0	-0.13	0	0.305	0	0	0
5.399	4.399292	100.723572	16.540777	0.130355	0	-0.367418	0.00E+00	1.013974	1.00E-06	0	0	0	-0.13	0	0.305	0	0	0
5.4	3.856501	100.723572	15.522039	0.128676	0	-0.367872	2.00E-06	1.157771	1.00E-06	0	0	0	-0.13	0	0.305	0	0	0
5.401	4.239982	104.156509	14.189978	0.128131	0	-0.369084	3.00E-06	1.178269	1.00E-06	0	0	0	-0.13	0	0.305	0	0	0
5.402	4.239982	106.70575	12.466305	0.128676	0	-0.369084	3.00E-06	1.157771	1.00E-06	0	0	0	-0.13	0	0.305	0	0	0
5.403	4.547778	113.719368	9.567108	0.125747	0	-0.373635	3.00E-06	1.178269	0	0	0	0	-0.13	0	0.305	0	0	0
5.404	4.547778	113.719368	7.216307	0.124476	0	-0.37377	3.00E-06	0.974177	0	0	0	0	-0.13	0	0.305	0	0	0
5.405	4.317112	113.719368	5.727663	0.124476	0	-0.37377	3.00E-06	1.125009	1.00E-06	0	0	0	-0.13	0	0.305	0	0	0
5.406	4.23493	117.700836	3.455154	0.124666	0	-0.37377	3.00E-06	1.007163	1.00E-06	0	0	0	-0.13	0	0.305	0	0	0
5.407	4.000656	118.549408	2.044842	0.125405	0	-0.37284	3.00E-06	1.119314	1.00E-06	0	0	0	-0.13	0	0.305	0	0	0
5.408	4.232044	122.506157	-0.070847	0.125405	0	-0.374736	2.00E-06	1.030867	1.00E-06	0	0	0	-0.13	0	0.305	0	0	0
5.409	4.232044	124.386154	-2.186577	0.125562	0	-0.37284	3.00E-06	1.119314	1.00E-06	0	0	0	-0.13	0	0.305	0	0	0
5.41	4.232044	126.985191	-3.989023	0.125562	0	-0.377245	5.00E-06	1.051782	1.00E-06	0	0	0	-0.13	0	0.305	0	0	0
5.411	4.072735	130.425858	-6.339745	0.126226	0	-0.370641	5.00E-06	1.095803	0	0	0	0	-0.13	0	0.305	0	0	0
5.412	3.44632	133.343094	-7.593395	0.126226	0	-0.37008	3.00E-06	1.093469	0	0	0	0	-0.13	0	0.305	0	0	0
5.413	3.44632	133.343094	-9.709003	0.126226	0	-0.37008	3.00E-06	1.093469	0	0	0	0	-0.13	0	0.305	0	0	0
5.414	3.60202	135.571014	-11.119396	0.126163	0	-0.369019	1.00E-06	1.088826	0	0	0	0	-0.13	0	0.305	0	0	0
5.415	4.297626	136.425049	-12.999971	0.126163	0	-0.369409	1.00E-06	1.088826	0	0	0	0	-0.13	0	0.305	0	0	0
5.416	4.297626	138.664154	-15.037169	0.125758	0	-0.369409	4.00E-06	1.169115	1.00E-06	0	0	0	-0.13	0	0.305	0	0	0
5.417	3.907652	140.883987	-15.350652	0.126269	0	-0.372064	4.00E-06	1.169115	1.00E-06	0	0	0	-0.13	0	0.305	0	0	0
5.418	3.751949	143.633026	-17.074448	0.125758	0	-0.372683	5.00E-06	1.061836	1.00E-06	0	0	0	-0.13	0	0.305	0	0	0
5.419	3.907652	146.03299	-18.014774	0.124888	0	-0.373191	3.00E-06	1.002339	1.00E-06	0	0	0	-0.13	0	0.305	0	0	0
5.42	4.533344	147.916489	-19.425209	0.124888	0	-0.373191	3.00E-06	1.002339	0.00E+00	0	0	0	-0.13	0	0.305	0	0	0
5.421	4.533344	152.050293	-20.052296	0.123447	0	-0.372033	0	0.923098	1.00E-06	0	0	0	-0.13	0	0.305	0	0	0
5.422	4.456217	152.557938	-20.992584	0.124269	0	-0.3714	0.00E+00	0.925169	1.00E-06	0	0	0	-0.13	0	0.305	0	0	0
5.423	4.379808	154.449509	-21.69784	0.123903	0	-0.3714	1.00E-06	0.923098	2.00E-06	0	0	0	-0.13	0	0.305	0	0	0
5.424	4.456217	157.532959	-22.324604	0.123903	0	-0.3714	4.00E-06	0.771976	2.00E-06	0	0	0	-0.13	0	0.305	0	0	0
5.425	4.999729	159.928711	-22.324644	0.12221	0	-0.37124	4.00E-06	0.771976	1.00E-06	0	0	0	-0.13	0	0.305	0	0	0
5.426	4.999729	165.419891	-23.264851	0.12221	0	-0.370818	4.00E-06	0.819422	1.00E-06	0	0	0	-0.13	0	0.305	0	0	0
5.427	4.999729	169.55603	-23.264851	0.122006	0	-0.370453	5.00E-06	0.819422	1.00E-06	0	0	0	-0.13	0	0.305	0	0	0
5.428	5.549738	170.910675	-23.264851	0.122365	0	-0.370453	5.00E-06	0.682952	1.00E-06	0	0	0	-0.13	0	0.305	0	0	0
5.429	6.176153	176.235931	-24.283512	0.122006	0	-0.371968	2.00E-06	0.645315	1.00E-06	0	0	0	-0.13	0	0.305	0	0	0
5.43	6.409706	178.4608	-24.283512	0.122292	0	-0.371968	2.00E-06	0.645315	0.00E+00	0	0	0	-0.13	0	0.305	0	0	0
5.431	6.409706	183.622955	-24.361923	0.122292	0	-0.369671	2.00E-06	0.645315	1.00E-06	0	0	0	-0.13	0	0.305	0	0	0
5.432	5.556232	190.136276	-24.518744	0.122292	0	-0.369492	6.00E-06	0.535853	1.00E-06	0	0	0	-0.13	0	0.305	0	0	0
5.433	5.554789	195.97226	-25.067101	0.122767	0	-0.369492	6.00E-06	0.436655	1.00E-06	0	0	0	-0.13	0	0.305	0	0	0
5.434	5.556232	206.799545	-25.380381	0.123184	0	-0.366705	6.00E-06	0.436655	1.00E-06	0	0	0	-0.13	0	0.305	0	0	0
5.435	6.021894	214.699554	-25.537281	0.123544	0	-0.365527	6.00E-06	0.586018	1.00E-06	0	0	0	-0.13	0	0.305	0	0	0
5.436	6.021894	222.26709	-25.615894	0.123434	0	-0.363592	4.00E-06	0.588605	1.00E-06	0	0	0	-0.13	0	0.305	0	0	0
5.437	5.867636	229.483582	-26.007629	0.124187	0	-0.363592	6.00E-06	0.586018	1.00E-06	0	0	0	-0.13	0	0.305	0	0	0
5.438	5.867636	239.105438	-26.477934	0.12496	0	-0.363831	5.00E-06	0.600428	1.00E-06	0	0	0	-0.13	0	0.305	0	0	0
5.439	5.947651	247.349106	-27.96682	0.12496	0	-0.364187	5.00E-06	0.529345	2.00E-06	0	0	0	-0.13	0	0.305	0	0	0
5.44	5.949096	252.664749	-28.358753	0.125163	0	-0.364187	5.00E-06	0.580248	3.00E-06	0	0	0	-0.13	0	0.305	0	0	0
5.441	6.026224	258.866058	-29.220629	0.124709	0	-0.362718	7.00E-06	0.573007	3.00E-06	0	0	0	-0.13	0	0.305	0	0	0
5.442	6.026224	263.836884	-29.690773	0.12517	0	-0.361722	7.00E-06	0.573007	4.00E-06	0	0	0	-0.13	0	0.305	0	0	0
5.443	6.335463	268.820068	-30.709152	0.124709	0	-0.361722	5.00E-06	0.573007	3.00E-06	0	0	0	-0.13	0	0.305	0	0	0
5.444	6.338349	273.108124	-31.57131	0.124305	0	-0.362191	2.00E-06	0.582297	2.00E-06	0	0	0	-0.13	0	0.305	0	0	0
5.445	6.414036	275.326019	-32.041534	0.123767	0	-0.362191	5.00E-06	0.609196	2.00E-06	0	0	0	-0.13	0	0.305	0	0	0
5.446	6.414036	280.335083	-32.433426	0.123221	0	-0.361137	1.00E-06	0.582297	3.00E-06	0	0	0	-0.13	0	0.305	0	0	0
5.447	6.10191	282.55838	-34.235634	0.123767	0	-0.360578	9.00E-06	0.532788	3.00E-06	0	0	0	-0.13	0	0.305	0	0	0
5.448	5.867636	286.004822	-35.332581	0.124254	0	-0.360578	1.10E-05	0.532788	2.00E-06	0	0	0	-0.13	0	0.305	0	0	0
5.449	5.863306	293.048523	-36.194824	0.124254	0	-0.359589	1.10E-05	0.575209	2.00E-06	0	0	0	-0.13	0	0.305	0	0	0
5.45	5.241941	293.04892	-37.448475	0.123935	0	-0.359558	1.10E-05	0.724537	3.00E-06	0	0	0	-0.13	0	0.305	0	0	0
5.451	5.161205	295.291138	-38.545624	0.123935	0	-0.359558	9.00E-06	0.638584	3.00E-06	0	0	0	-0.13	0	0.305	0	0	0
5.452	3.990553	298.04364	-39.094017	0.12398	0	-0.357994	5.00E-06	0.724537	3.00E-06	0	0	0	-0.13	0	0.305	0	0	0
5.453	3.440546	299.25293	-40.19109	0.124663	0	-0.357828	5.00E-06	0.752717	1.00E-06	0	0	0	-0.13	0	0.305	0	0	0
5.454	2.658428	304.242615	-40.974552	0.12398	0	-0.357828	6.00E-06	0.759555	1.00E-06	0	0	0	-0.13	0	0.305	0	0	0
5.455	1.171322	306.467865	-41.993374	0.12458	0	-0.35733	6.00E-06	0.886351	0	0	0	0	-0.13	0	0.305	0	0	0
5.456	1.092751	309.412872	-42.620461	0.12458	0	-0.355725	6.00E-06	1.008262	0	0	0	0	-0.13	0	0.305	0	0	0
5.457	-0.390028	311.483826	-42.855572	0.125119	0	-0.355725	5.00E-06	1.008262	0	0	0	0	-0.13	0	0.305	0	0	0
5.458	-0.936426	312.855469	-43.090565	0.125119	0	-0.355711	7.00E-06	0.957718	0.00E+00	0	0	0	-0.13	0	0.305	0	0	0
5.459	-1.872803	314.235199	-43.79586	0.125024	0	-0.35628	9.00E-06	0.957718	0.00E+00	0	0	0	-0.13	0	0.305	0	0	0
5.46	-2.579956	316.620911	-43.874233	0.125024	0	-0.355711	1.00E-05	0.952166	0	0	0	0	-0.13	0	0.305	0	0	0
5.461	-4.06201	319.743378	-43.952763	0.125346	0	-0.354683	9.00E-06	1.054571	2.00E-06	0	0	0	-0.13	0	0.305	0	0	0
5.462	-5.003439	321.453247	-43.952763	0.125346	0	-0.354683	7.00E-06	1.063993	2.00E-06	0	0	0	-0.13	0	0.305	0	0	0
5.463	-5.702652	321.977051	-43.717529	0.125143	0	-0.35497	6.00E-06	1.187219	2.00E-06	0	0	0	-0.13	0	0.305	0	0	0
5.464	-6.409083	324.898132	-43.325794	0.124727	0	-0.355035	6.00E-06	1.124897	2.00E-06	0	0	0	-0.13	0	0.305	0	0	0
